<svg width="424" height="100" viewBox="0 0 424 100" fill="none" xmlns="http://www.w3.org/2000/svg">
<path d="M18.4834 42.0088C18.7287 25.6699 38.0647 15.1909 52.8369 17.9424C63.9633 20.0136 65.6803 33.1752 57.6094 39.7461C55.0207 41.8525 50.7046 43.2594 47.4903 41.9404C46.8972 41.6967 44.8041 40.6532 45.6631 39.8906C46.1128 39.4919 46.8987 39.1611 47.4746 38.6152V38.6162C51.2195 35.072 54.1549 26.4219 46.9258 25.2148C38.9328 23.8801 29.9221 32.0403 32.1953 40.2432C34.8991 50.0007 52.8569 52.9706 53.9805 67.1523C55.5378 86.8073 33.1409 101.394 15.2168 99.8945C-6.43085 98.085 -3.16833 73.2239 13.6358 66.4717C18.1393 64.6611 26.1393 63.3788 27.6475 69.5625C27.6696 70.0625 27.5725 69.8707 27.2793 69.9697C26.5168 70.229 25.4637 70.2318 24.6113 70.499C20.4989 71.7869 16.2662 74.5443 14.1963 78.4209C11.5427 83.3923 12.0438 89.7708 18.4111 91.0273C28.2237 92.9628 39.4501 84.0633 39.7891 74.0918C40.2635 60.0924 18.2501 57.5711 18.4834 42.0088ZM225.615 71.1904C227.555 70.7134 229.864 70.5115 231.609 71.6377C231.893 71.8345 232.153 72.0675 232.365 72.3398C233.926 74.3342 233.037 77.4273 231.052 78.7178C229.969 79.4216 228.573 79.4306 227.457 78.7803L227.445 78.7734C227.458 78.7618 227.851 78.3986 228.058 78.1933C229.064 77.1961 229.907 75.2073 228.906 73.9717C228.477 73.4413 227.509 73.3711 226.873 73.4297C226.581 73.4571 222.402 74.3016 222.653 78.0674C222.717 79.0202 223.064 79.4713 223.626 80.1543C224.404 81.1006 225.908 82.0406 225.963 82.0771C228.499 83.7924 230.837 85.2129 230.847 88.749C230.848 88.9796 230.841 89.2053 230.827 89.4267C231.212 88.4961 231.521 87.5237 231.818 86.5644C232.2 85.3275 232.478 84.0436 232.697 82.7676C232.737 82.7559 235.341 81.9956 236.185 82.0859C236.202 82.0872 236.495 82.1888 236.51 82.1992C236.564 82.2409 236.55 82.3232 236.545 82.3818C236.508 82.8041 236.293 83.4972 236.192 83.9404C235.844 85.4706 235.475 86.9868 235.154 88.5312C234.946 89.5349 234.488 91.1493 234.652 92.1504C234.731 92.6285 235.18 92.8446 235.622 92.6465C236.087 92.4363 236.856 91.3657 237.122 90.9238C237.333 90.5732 237.49 90.0961 237.689 89.7558C238.131 89.0037 238.516 87.791 238.751 86.8994C239.031 85.8356 239.631 82.8025 239.643 82.6904L238.103 82.8418C238.185 82.4817 238.471 81.0469 238.501 80.9922L240.14 80.75C240.226 80.617 240.714 78.1272 241.026 77.2695C241.214 76.7537 242.542 75.996 242.687 75.9326C243.768 75.4621 244.938 75.3483 245.007 75.3926L243.915 80.1426L246.141 79.8926C246.14 79.9105 246.134 80.5065 246.101 80.7236C246.046 81.0859 245.854 81.5176 245.527 81.7041C245.217 81.8801 243.539 82.0654 243.539 82.0654C243.503 82.0772 243.206 83.5785 243.074 84.1797C242.756 85.6315 242.339 87.108 242.078 88.5703C241.974 89.1581 241.829 89.9457 241.838 90.5322C241.842 90.8514 241.902 91.3492 242.196 91.541C242.625 91.82 243.231 91.3027 243.512 90.9795C244.098 90.3017 245.062 88.6904 245.322 87.8301C245.442 87.4326 245.47 86.9349 245.566 86.5244C245.888 85.1428 246.877 82.9426 247.775 81.8828C247.874 81.7655 248.72 80.7892 249.064 80.4814C250.152 79.509 251.543 78.7147 253.055 78.5244C253.968 78.4084 254.86 78.4689 255.637 78.9941C256.982 79.9027 256.659 82.3261 256.025 83.5957C254.842 85.9666 252.172 87.5178 249.715 88.2607C249.608 88.2934 249.205 88.4131 249.205 88.4131C249.205 88.419 249.193 88.8928 249.227 89.1182C249.44 90.5337 250.627 91.0247 251.944 90.7236C255.633 89.8813 258.12 85.0677 259.512 81.8887C260.294 80.1032 260.513 79.2652 261.941 77.8799C263.042 76.8123 264.842 76.6883 265.936 76.876L265.939 76.875C269.045 77.4068 267.572 80.7085 266.62 81.2383C266.143 81.5028 265.572 81.4847 265.027 81.4014C264.683 81.3492 264.434 81.1562 264.434 81.1562C264.861 80.7743 265.057 80.1997 265.099 80.0732C265.166 79.8659 265.347 79.321 264.99 78.9209C264.764 78.6667 263.859 78.3205 263.031 79.3174C262.655 79.771 262.545 80.4112 262.699 80.9795C262.819 81.4226 263.244 81.9105 263.581 82.2441C264.492 83.1461 265.301 83.6491 265.954 84.8262C265.966 84.8453 266.435 85.636 266.388 86.8437C266.308 88.8823 265.012 90.4216 263.203 91.3027C261.075 92.3402 257.859 92.3935 257.248 89.5859C257.225 89.4759 257.105 88.8574 257.105 88.8574C257.105 88.8574 256.787 89.1986 256.652 89.3642C255.877 90.3184 255.241 91.0789 254.285 91.831C251.939 93.678 247.491 94.9488 245.817 91.5703C245.755 91.4454 245.669 91.1215 245.626 91.0557C245.618 91.0677 245.408 91.3854 245.294 91.5683C244.655 92.5903 243.269 94.1944 241.877 94.7471C241.039 95.0793 239.592 94.9983 238.964 94.3271C238.461 93.7888 238.321 93.0876 238.116 92.4072C237.531 93.2361 236.967 94.1771 236.218 94.8652C235.759 95.2849 235.236 95.6209 234.631 95.8203C233.06 96.339 231.584 95.8009 231.176 94.1025C231.13 93.9068 231.067 93.1941 230.998 93.1016C230.954 93.0534 229.905 95.3217 228.046 95.5156C225.608 98.0886 221.872 99.7085 218.381 99.7646C214.901 99.8207 212.09 97.8461 212.495 94.0908C212.757 91.6678 214.572 89.324 216.778 88.332C217.283 88.1052 218.03 87.8422 218.575 87.751C219.651 87.5712 221.422 87.6615 221.719 88.9453C221.737 89.0299 221.794 89.1507 221.71 89.2119C221.64 89.2627 220.992 89.3707 220.828 89.4267C219.17 89.9899 217.485 91.3175 216.969 93.0928C215.96 96.5572 219.293 97.4449 221.921 96.2705C225.95 94.4691 227.837 89.6935 223.849 86.5586C223.673 86.4218 222.499 85.5518 222.372 85.4648C222.251 85.3815 221.883 85.1144 221.783 85.0449C221.116 84.5796 220.37 83.9967 219.807 83.4141C217.784 81.3259 217.745 78.3666 219.168 75.8457C221.062 72.4908 224.971 71.3494 225.615 71.1904ZM214.986 29.9687C221.716 24.2909 231.745 24.2699 233.449 34.5527V34.5547C235.463 46.7057 226.926 66.8451 214.726 71.2744C209.969 73.0015 205.322 72.8817 202.173 68.4941C201.768 67.9315 201.284 68.0122 201.199 68.4629C200.481 72.2821 198.376 77.1553 197.255 81.0683C195.704 86.4842 193.701 92.2584 194.232 97.918C191.271 100.177 185.462 100.045 183.55 96.5322C181.968 93.6268 183.071 90.0747 183.852 87.1094C185.852 79.5167 188.852 72.1451 190.892 64.5576C184.407 71.5508 174.998 78.4494 164.805 76.4277C158.598 75.196 157.207 71.5187 155.431 66.2568C155.323 65.9362 155.594 65.8011 154.925 65.8428C149.113 75.2474 133.135 85.5789 122.402 78.4814C119.504 76.5652 116.976 71.3349 117.305 67.8848L117.835 62.3125C117.742 62.1913 115.319 62.5549 114.801 62.542C113.879 62.5198 111.291 61.8365 110.908 62.1689C108.407 67.0126 105.749 71.833 102.393 76.1475C98.7949 80.7735 92.2048 87.5522 85.7344 84.6377C81.579 82.7658 81.0179 77.6888 80.7715 73.6924C77.5806 78.8854 71.9566 87.9921 65.0235 87.8789C52.7304 87.6782 59.9381 67.4143 61.4268 60.6973C62.523 55.7505 64.2024 50.2572 62.1572 45.4004C65.9466 42.963 73.6926 41.638 74.7901 47.583C76.0621 54.4745 70.3418 66.2123 69.1465 73.5039C68.9197 74.8908 68.2821 77.6393 70.1055 77.874C72.6797 77.7476 77.6391 68.3689 78.7539 66.0508C81.8275 59.6598 84.1757 52.6595 85.4531 45.6807C87.0197 44.3408 96.5171 43.0209 96.918 45.3223C95.6927 50.4436 94.0455 55.4847 92.9063 60.6269C92.2194 63.7278 91.2444 67.7852 91.0996 70.8926C90.732 78.806 94.9255 75.0744 97.6602 71.2891C100.582 67.2445 102.568 62.4454 104.84 58.0215C102.22 53.0813 102.441 46.2428 105.208 41.4004C108.45 35.7264 116.946 34.8191 117.044 42.7832C117.103 47.5512 115.165 52.0025 113.685 56.4199C114.664 56.8866 118.555 57.3221 119.193 56.5127C119.588 56.0132 120.347 53.388 120.795 52.4521C124.279 45.1709 130.492 37.8562 138.393 35.2988C144.368 33.3658 153.5 33.5877 153.963 41.6758C154.67 54.0664 140.44 62.5402 129.715 64.2529C128.93 74.3067 138.519 72.8154 144.638 69.1553C147.709 67.3185 154.567 61.2304 155.618 57.8701C156.102 56.3216 156.307 54.3436 156.818 52.6738C159.872 42.6997 168.672 31.9018 179.531 30.4365C195.185 28.3249 194.363 42.9943 185.751 51.2558C180.824 55.9823 174.186 58.9683 167.522 60.2744C167.139 72.08 178.951 67.8156 184.993 63.3447C193.046 57.3852 197.029 49.2773 198.738 39.5078C200.45 29.7226 207.255 23.5442 209.995 31.2295C210.424 32.4338 210.389 33.6678 210.866 34.8096L214.986 29.9687ZM259.112 85.9766C259.711 85.8514 260.674 85.699 261.2 86.125C261.637 86.4782 261.577 87.0654 261.577 87.0654C260.972 87.1801 260.43 87.5591 260.063 88.1846L260.059 88.1943C259.652 88.9047 260.101 89.8211 260.913 89.9228C261.441 89.9893 261.919 89.7043 262.177 89.5088C262.306 89.4111 262.417 89.2929 262.508 89.1601L262.506 89.1611C263.546 87.6504 262.837 86.511 262.615 85.9805C262.095 84.7313 260.451 83.0553 260.457 83.1221L259.112 85.9766ZM252.936 80.7168C252.212 80.7471 251.301 81.8679 250.926 82.4375C250.26 83.4502 249.625 85.0993 249.367 86.3037L249.368 86.3057C249.359 86.3507 249.337 86.5439 249.337 86.5439C249.337 86.5439 249.432 86.5085 249.48 86.4863C250.81 85.8802 252.007 85.1448 252.876 83.9443C253.417 83.1961 253.977 82.1415 253.779 81.1992C253.679 80.7225 253.379 80.6985 252.936 80.7168ZM234.468 76.7832C236.197 75.6845 237.371 76.5314 237.628 76.9043C238.198 77.732 237.667 78.9696 237.053 79.6787V79.6767C236.155 80.713 233.936 81.1434 233.446 79.4697C233.177 78.5469 233.682 77.2825 234.468 76.7832ZM364.749 0.00682578C366.063 -0.0049303 367.464 -0.139736 367.09 1.62108C367.06 1.7225 360.507 24.0017 359.583 28.1982C360.725 27.205 361.465 25.7619 362.438 24.5615C365.819 20.3852 372.15 15.0923 377.962 16.1416C378.206 16.1859 378.792 16.3339 379.084 16.3652C382.405 16.725 384.791 20.1389 384.861 23.3154C385.05 31.9132 377.685 36.9831 370.6 39.959C370.345 40.0656 369.989 39.9748 369.854 40.2392C369.799 40.3739 369.907 41.3921 369.939 41.6269C370.248 43.8012 370.795 46.471 371.281 48.6269C372.504 54.0468 374.315 59.5382 376.59 64.5957C380.953 61.1339 388.533 59.4173 393.078 63.4199L393.072 63.417C395.893 65.9001 396.156 70.476 394.614 73.7256C391.529 80.2284 382.287 80.8699 376.337 78.3975C364.784 73.5954 360.894 55.428 359.768 44.2754C359.675 43.3601 359.429 41.3282 359.507 40.5137C359.546 40.1149 359.749 39.7086 359.984 39.3867C360.91 38.1224 363.776 37.7663 365.319 37.0351C368.313 35.6157 372.183 32.3595 373.165 29.0957C374.214 25.609 372.33 23.8998 368.989 25.3281C363.584 27.6391 358.453 36.7036 356.386 42.001C354.897 45.8137 354.276 49.6414 353.133 53.4814C352.859 54.4027 352.579 55.4112 351.775 55.9951C349.905 57.3519 344.208 57.872 341.955 57.4941C340.846 57.3077 340.797 56.9691 340.938 55.959C341.154 54.4066 341.93 52.6234 342.197 51.0488C342.202 50.9328 336.517 58.7804 332.175 59.6084C326.848 60.6238 324.453 58.2336 323.972 53.0576C323.953 52.8635 323.991 52.7331 323.796 52.5976C323.612 52.5924 322.012 55.2125 321.689 55.6172C319.502 58.3623 315.603 61.2564 312.104 61.9199C305.804 63.1152 301.389 59.8837 300.258 53.7119C300.207 53.4304 300.353 52.4298 299.931 52.5166C298.107 55.3412 296.013 57.9963 293.504 60.2383C290.636 62.8009 287.044 64.892 283.054 64.7695C279.559 64.6624 277.159 62.1778 276.511 58.8789C276.341 58.0199 276.091 55.1203 276.179 54.3252C276.21 54.0501 276.138 53.6152 276.138 53.6152C275.186 54.8561 274.333 56.1742 273.339 57.3838C269.916 61.5446 259.632 70.841 242.21 70.5517C241.765 70.5439 241.319 70.4955 240.885 70.4473C238.561 70.1904 236.382 69.2088 234.75 67.6865C233.013 66.0651 232.002 63.9743 231.827 61.6387C231.58 58.3291 232.743 54.9457 235.101 52.1172C237.354 49.4126 240.504 47.5088 243.741 46.8935C244.435 46.7619 245.18 46.7093 245.899 46.7432C248.648 46.8722 250.294 48.1978 250.304 50.2871V50.7637L249.836 50.8467C248.448 51.0956 247.253 51.5406 246.075 52.2471C244.221 53.3589 242.876 54.7247 242.078 56.3057C241.026 58.3912 240.887 60.3833 241.696 61.7715C242.378 62.9418 243.699 63.6047 245.512 63.6894C245.682 63.6985 245.861 63.7018 246.039 63.6992C249.247 63.6575 252.757 61.7411 254.982 58.8174C256.905 56.2925 257.587 53.4702 256.905 50.8711C256.054 47.6283 253.122 45.5469 250.286 43.5332C248.851 42.5139 247.365 41.4586 246.17 40.2646C243.191 37.2901 241.956 33.6731 242.6 29.8057C243.42 24.8773 247.315 20.0444 252.525 17.4961C255.787 15.9006 259.623 15.036 262.785 15.1846C265.435 15.3097 267.601 16.1 269.226 17.5351C271.63 19.6611 271.877 21.9905 271.508 24.8359C271.269 26.6777 270.22 28.5883 268.631 30.0781C266.973 31.6318 264.958 32.473 263.101 32.3857C262.497 32.3571 261.907 32.233 261.345 32.0166C261.26 31.984 260.011 31.3556 259.783 30.8877C259.633 30.5827 259.675 30.3079 259.903 30.0693L259.92 30.0508C260.066 29.8867 260.298 29.7357 260.544 29.5742C260.681 29.4856 260.85 29.3741 260.918 29.3115C262.559 27.8125 263.821 25.1872 263.056 23.0703C262.652 21.9523 261.742 21.3291 260.423 21.2666C259.64 21.2301 258.73 21.3935 257.72 21.7519C254.932 22.7413 252.785 25.06 252.252 27.6592C251.809 29.819 252.542 31.9094 254.316 33.5478C255.668 34.7952 257.268 35.8661 258.815 36.9023C262.609 39.4402 266.532 42.0651 267.245 47.5098C267.604 50.2431 267.313 52.94 266.383 55.5273C266.307 55.7372 266.226 55.9461 266.143 56.1533C269.796 53.6416 273.064 50.2654 275.172 47.3496C279.301 41.6392 280.455 36.2114 282.235 29.5195C282.4 28.9004 282.772 27.6484 282.772 27.6484C282.736 27.6472 276.836 27.4414 276.621 27.4414C274.597 27.4314 273.241 20.6742 284.346 21.6426C285.424 18.453 286.124 14.9567 287.662 11.9443C289.527 8.29197 293.953 6.21297 297.941 6.13085C299.5 6.09958 300.173 6.20117 299.818 7.91894C299.088 11.4501 297.296 15.7321 296.249 19.3232C296.103 19.8238 295.588 21.0397 296.307 21.041C298.354 21.0449 300.826 20.3477 302.886 20.3164C303.223 20.3111 303.648 20.2606 303.85 20.5547C303.706 21.5256 303.879 22.7419 303.702 23.6777C303.544 24.5146 302.666 25.7158 301.837 26.0078C299.873 26.701 296.881 26.3736 294.788 26.749C294.56 26.7894 294.285 26.8077 294.178 27.0371C292.698 32.994 290.749 38.8507 289.31 44.8154C288.769 47.0574 287.473 52.1294 288.596 54.1172C289.331 55.419 290.969 54.874 291.993 54.2314C294.694 52.5343 299.573 45.1513 300.971 42.1611C301.718 40.5632 302.202 38.775 302.878 37.1406C305.893 29.8568 312.165 22.1436 320.143 20.251C322.313 19.7362 324.919 19.5676 327.018 20.4004C328.24 20.8853 329.097 21.9004 330.029 22.7646C330.376 22.2902 330.683 21.7514 331.08 21.3174C332.772 19.4718 337.944 18.4137 340.41 18.4307C342.385 18.4437 342.611 18.6403 342.171 20.499C341.251 24.3833 340.153 28.3393 339.134 32.2158C338.064 36.2905 334.899 44.8299 335.306 48.6074C335.367 49.1704 335.629 49.9207 336.304 49.9131C339.261 46.962 341.871 43.5185 344.052 39.9443C346.152 36.5018 346.423 35.0522 347.473 31.25C348.814 26.3894 350.156 21.5262 351.52 16.6709C351.52 16.6709 353.302 10.4006 353.456 9.90917C354.881 5.37852 356.399 2.55817 361.002 0.819326C362.187 0.372231 363.477 0.0185571 364.749 0.00682578ZM389.406 67.0723C387.594 65.0326 384.189 65.0978 381.812 65.9541C381.293 66.1418 378.397 67.5014 378.461 67.9941C380.425 70.88 384.998 76.225 388.829 73.3887L388.83 73.3877C390.685 72.0138 390.909 68.7655 389.406 67.0723ZM221.861 38.8662C221.853 36.6974 221.187 34.2585 218.54 34.5527C213.999 35.0572 209.199 45.3032 207.62 49.0937C206.417 51.9796 204.585 56.3852 204.455 59.4482C204.214 65.1403 208.542 66.2159 212.402 62.6826C217.517 58.0018 221.886 45.6925 221.861 38.8662ZM143.613 48.5488C145.343 45.3879 146.638 39.162 140.813 41.6933H140.814C135.914 43.8232 131.724 53.3005 130.52 58.2851C135.563 57.0989 141.107 53.1279 143.613 48.5488ZM405.513 14.2939C414.278 12.7403 421.374 17.1923 418.032 26.7324C415.009 35.3587 404.209 40.3403 395.769 41.7246C395.503 43.191 395.89 45.1777 396.775 46.4355C399.805 50.7408 406.301 48.6505 410.066 46.6016C414.453 44.2136 418.238 40.3146 421.079 36.249C421.477 35.6795 421.996 34.5017 422.448 34.0791C423.263 33.3207 423.128 34.1928 423.241 34.5176C423.28 34.631 423.458 34.6161 423.474 34.706L423.475 34.7041C424.713 41.6411 414.661 50.7277 409.181 53.7637C396.558 60.7568 381.088 56.7032 383.694 39.8193C385.442 28.5038 393.63 16.4004 405.513 14.2939ZM181.836 43.6279C183.182 40.7446 184.178 35.7343 179.262 37.335L179.263 37.3359C173.904 39.0816 169.45 49.1159 168.32 54.2998C173.652 52.8412 179.465 48.705 181.836 43.6279ZM324.29 26.4404C320.451 26.3831 316.914 31.8616 315.434 34.9248C313.618 38.6803 310.77 47.2258 312.93 51.0332C314.294 53.4407 317.117 52.6314 318.908 51.1924L318.906 51.1904C323.021 47.8821 327.73 36.2491 327.615 31.0664C327.576 29.2442 326.429 26.4732 324.29 26.4404ZM407.445 20.3584C403.865 20.5112 400.249 26.4702 398.802 29.373H398.801C397.765 31.4533 396.877 33.7096 396.386 35.9736C396.838 36.4715 400.653 34.5661 401.29 34.206C404.36 32.4685 407.563 29.5884 409.103 26.3779C410.153 24.1868 411.116 20.2033 407.445 20.3584Z" fill="black"/>
</svg>
